<svg width="512" height="600" viewBox="0 0 512 600" xmlns="http://www.w3.org/2000/svg" role="img" aria-label="Marina Cleans stacked logo">
  <defs>
    <linearGradient id="g3" x1="0" y1="0" x2="1" y2="1">
      <stop offset="0" stop-color="#0D9488" />
      <stop offset="1" stop-color="#10B981" />
    </linearGradient>
  </defs>
  <!-- icon -->
  <g transform="translate(0,0)">
    <circle cx="256" cy="220" r="180" fill="url(#g3)"/>
    <path d="M168 226 L256 154 L344 226 V312 A14 14 0 0 1 330 326 H182 A14 14 0 0 1 168 312 Z"
          fill="none" stroke="white" stroke-width="18" stroke-linejoin="round"/>
    <g transform="translate(256,240) rotate(-20) translate(-256,-240)">
      <rect x="210" y="224" width="140" height="20" rx="6" fill="white" opacity="0.95"/>
      <rect x="272" y="244" width="10" height="52" rx="5" fill="white" opacity="0.95"/>
    </g>
    <g fill="white">
      <path d="M126 206 l10 4 4 10 4-10 10-4-10-4-4-10-4 10z" opacity="0.95"/>
      <circle cx="198" cy="186" r="5" opacity="0.9"/>
      <circle cx="330" cy="184" r="4" opacity="0.9"/>
    </g>
  </g>
  <!-- wordmark -->
  <g transform="translate(0,440)">
    <text x="50%" y="0" text-anchor="middle"
          font-family="Inter, ui-sans-serif, system-ui, -apple-system, Segoe UI, Roboto"
          font-weight="800" font-size="56" fill="#065F46" dominant-baseline="hanging">
      Marina Cleans
    </text>
    <text x="50%" y="68" text-anchor="middle"
          font-family="Inter, ui-sans-serif, system-ui, -apple-system, Segoe UI, Roboto"
          font-weight="500" font-size="20" fill="#334155">
      Spotless • Eco‑friendly • Reliable
    </text>
  </g>
</svg>